# Object Export From Tinkercad Server 2015

mtllib obj.mtl

o obj_0
v -74.862 		1.3 		6.326
v -74.185 		2.9 		7.813
v -73.791 		2.9 		7.515
v -75.152 		1.3 		6.528
v -75.477 		1.3 		6.668
v -75.735 		1.1 		6.73
v -75.392 		1.1 		6.641
v -74.794 		1.1 		6.268
v -75.074 		1.1 		6.485
v -77.709 		2.9 		7.878
v -76.771 		1.1 		6.571
v -75.823 		1.3 		6.739
v -76.177 		1.3 		6.739
v -76.523 		1.3 		6.668
v -76.089 		1.1 		6.748
v -76.439 		1.1 		6.694
v -77.071 		1.1 		6.384
v -76.848 		1.3 		6.528
v -77.138 		1.3 		6.326
v -74.308 		1.3 		5.438
v -74.431 		1.3 		5.77
v -74.618 		1.3 		6.07
v -74.286 		1.1 		5.352
v -74.392 		1.1 		5.69
v -74.564 		1.1 		6
v -74.392 		1.1 		4.31
v -74.259 		1.1 		4.823
v -74.286 		1.1 		4.648
v -74.361 		1.3 		4.393
v -74.254 		1.3 		5.089
v -74.272 		1.3 		4.735
v -77.741 		1.1 		5.177
v -77.692 		1.1 		5.438
v -77.328 		1.1 		6.14
v -77.53 		1.1 		5.849
v -77.608 		1.1 		5.69
v -2.753 		1.1 		65.658
v -77.728 		1.3 		5.265
v -2.841 		1.1 		66.176
v -77.382 		1.3 		6.07
v -3.954 		1.1 		65.651
v -4.004 		1.1 		65.871
v -77.67 		1.3 		5.524
v -77.569 		1.3 		5.77
v -3.807 		-2.9 		67.519
v -3.337 		-2.9 		67.097
v -4.027 		-0.9 		65.943
v -3.95 		-2.9 		65.575
v -3.982 		-0.9 		65.799
v -4.004 		-2.9 		65.871
v -2.759 		-2.9 		65.763
v -4.088 		-2.9 		66.081
v -4.079 		-2.9 		67.679
v -2.949 		-2.9 		66.473
v -2.791 		-2.9 		65.972
v -77.53 		1.1 		4.151
v -5.615 		1.1 		67.914
v -77.67 		1.1 		4.476
v -5.195 		1.1 		67.95
v -77.746 		1.1 		4.911
v -4.57 		1.1 		67.869
v -5.821 		1.1 		67.869
v -77.714 		1.1 		4.648
v -4.173 		1.1 		67.727
v -77.639 		1.3 		4.393
v -77.75 		1.3 		5
v -77.728 		1.3 		4.735
v -6.217 		1.1 		67.727
v -6.405 		1.1 		67.631
v -5.195 		1.1 		66.75
v -4.97 		1.1 		66.727
v -5.42 		1.1 		66.727
v -5.776 		1.1 		66.607
v -6.078 		1.1 		66.382
v -4.426 		1.1 		66.482
v -4.26 		1.1 		66.329
v -5.905 		1.1 		66.529
v -79.024 		2.9 		6.437
v -78.779 		2.9 		6.866
v -79.202 		2.9 		5.975
v -79.311 		2.9 		4.507
v -7.349 		1.1 		66.663
v -79.348 		2.9 		5
v -7.184 		1.1 		66.932
v -7.053 		1.1 		67.097
v -79.311 		2.9 		5.493
v -6.752 		1.1 		67.392
v -81 		2.9 		162
v -81 		1.1 		162
v -81 		2.9 		49.152
v -81 		1.1 		0
v -81 		2.9 		0
v 12.514 		-2.9 		98.631
v 12.693 		-2.9 		98.519
v -78.115 		2.9 		7.595
v -73.983 		2.9 		2.328
v -77.709 		2.9 		2.122
v -77.267 		2.9 		1.901
v -76.797 		2.9 		1.748
v -75.815 		2.9 		1.657
v -75.324 		2.9 		1.721
v -74.849 		2.9 		1.857
v -78.115 		2.9 		2.405
v -79.202 		2.9 		4.025
v -78.779 		2.9 		3.134
v -78.474 		2.9 		2.745
v 81 		1.1 		162
v 81 		2.9 		162
v 0 		2.9 		162
v -6.151 		1.103 		162
v -6.151 		1.1 		162
v -19.626 		2.9 		162
v -19.626 		1.103 		162
v -47.003 		1.103 		162
v -47.003 		2.9 		162
v -52.003 		1.1 		162
v -52.003 		1.103 		162
v 79.075 		2.9 		155.676
v 79.205 		2.9 		156.024
v 79.341 		2.9 		156.753
v 79.291 		2.9 		157.615
v 78.708 		2.9 		158.968
v 78.969 		2.9 		158.547
v 78.017 		2.9 		159.672
v 75.691 		2.9 		160.333
v 76.186 		2.9 		160.343
v 75.083 		2.9 		160.222
v 74.291 		2.9 		159.878
v 74.733 		2.9 		160.099
v 77.151 		2.9 		160.143
v 77.602 		2.9 		159.94
v 9.519 		1.1 		98.174
v 9.017 		1.1 		97.376
v 9.151 		1.1 		97.663
v 9.316 		1.1 		97.932
v 75.911 		1.1 		158.748
v 76.265 		1.1 		158.73
v 75.911 		1.3 		158.748
v 76.177 		1.3 		158.739
v 8.858 		1.1 		96.447
v 8.869 		1.1 		96.763
v 10.064 		1.1 		96.349
v 10.059 		1.1 		96.575
v 10.091 		1.1 		96.799
v 8.9 		1.1 		96.972
v 11.604 		1.1 		95.286
v 11.38 		1.1 		95.255
v 12.24 		1.1 		95.671
v 11.886 		1.1 		95.393
v 11.006 		1.1 		95.286
v 10.535 		1.1 		95.518
v -74.564 		1.1 		4
v 11.154 		1.1 		95.259
v -74.733 		1.3 		3.796
v 10.323 		1.1 		95.731
v 74.508 		2.9 		7.997
v 74.966 		2.9 		8.184
v -74.517 		1.3 		4.076
v 74.929 		1.1 		6.384
v 75.229 		1.1 		6.571
v 12.94 		-2.9 		98.321
v 75.561 		1.1 		6.694
v 12.031 		-2.9 		98.838
v 11.724 		-2.9 		98.914
v 11.305 		-2.9 		98.95
v 10.679 		-2.9 		98.869
v 10.095 		-2.9 		98.631
v 9.832 		-2.9 		98.455
v 12.55 		-2.9 		96.575
v 12.546 		-2.9 		96.349
v 74.862 		1.3 		6.326
v 12.412 		-2.9 		97.081
v 75.152 		1.3 		6.528
v 12.496 		-2.9 		96.871
v 13.752 		-2.9 		96.447
v 13.741 		-2.9 		96.763
v 13.709 		-2.9 		96.972
v 13.551 		-2.9 		97.473
v 13.293 		-2.9 		97.932
v 13.163 		-2.9 		98.097
v 12.333 		-2.9 		95.79
v 12.412 		-2.9 		95.919
v 12.422 		-2.9 		94.319
v 12.692 		-2.9 		94.483
v 75.477 		1.3 		6.668
v 13.092 		-2.9 		94.824
v 13.353 		-2.9 		95.155
v 13.628 		-2.9 		95.723
v 13.707 		-2.9 		96.029
v 11.817 		-2.9 		97.638
v 12.074 		-2.9 		97.482
v 10.659 		-2.9 		97.568
v 10.861 		-2.9 		97.669
v 11.305 		-2.9 		97.75
v 11.53 		-2.9 		97.727
v 12.287 		-2.9 		97.27
v 10.077 		-2.9 		96.275
v 10.136 		-2.9 		96.943
v 10.237 		-2.9 		97.146
v 10.055 		-2.9 		96.5
v 10.064 		-2.9 		96.651
v 9.447 		-2.9 		98.097
v 9.259 		-2.9 		97.843
v 9.017 		-2.9 		97.376
v 8.925 		-2.9 		97.074
v 8.862 		-2.9 		96.658
v 8.86 		-2.9 		96.342
v 11.817 		-2.9 		95.362
v 11.604 		-2.9 		95.286
v 11.154 		-2.9 		95.259
v 10.933 		-2.9 		95.309
v 10.724 		-2.9 		95.393
v 10.535 		-2.9 		95.518
v 10.323 		-2.9 		95.731
v 12.187 		-2.9 		95.618
v 12.015 		-2.9 		95.471
v 77.692 		1.1 		5.438
v 77.608 		1.1 		5.69
v 77.53 		1.1 		5.849
v 77.328 		1.1 		6.14
v 9.831 		-2.9 		94.543
v 10.188 		-2.9 		94.319
v 77.741 		1.3 		5.177
v 8.923 		-2.9 		95.926
v 9.019 		-2.9 		95.625
v 9.149 		-2.9 		95.336
v 9.318 		-2.9 		95.07
v 10.578 		-2.9 		94.16
v 11.305 		-2.9 		94.052
v 11.724 		-2.9 		94.088
v 12.131 		-2.9 		94.196
v 77.714 		1.3 		5.352
v 77.639 		1.3 		5.607
v -77.608 		1.1 		157.69
v -77.714 		1.1 		157.352
v -77.741 		1.1 		157.177
v -77.746 		1.1 		156.911
v -77.75 		1.3 		157
v -5.195 		-2.9 		67.95
v -5.821 		-2.9 		67.869
v -77.728 		1.3 		156.735
v -6.405 		-2.9 		67.631
v -4.469 		-2.9 		67.838
v 77.483 		1.3 		5.925
v -5.346 		-2.9 		66.741
v -5.639 		-2.9 		66.669
v -4.426 		-2.9 		66.482
v -4.213 		-2.9 		66.27
v -5.12 		-2.9 		66.746
v -4.896 		-2.9 		66.714
v -4.683 		-2.9 		66.638
v -77.639 		1.3 		157.607
v -77.728 		1.3 		157.265
v -6.078 		-2.9 		66.382
v -6.364 		-2.9 		65.943
v -6.263 		-2.9 		66.146
v -6.436 		-2.9 		65.651
v 77.53 		1.1 		4.151
v 77.67 		1.1 		4.476
v -7.6 		-2.9 		65.972
v -7.638 		-2.9 		65.658
v -7.399 		-2.9 		66.57
v -7.517 		-2.9 		66.276
v 77.746 		1.1 		5.089
v 77.741 		1.1 		4.823
v -6.668 		-2.9 		67.455
v -6.981 		-2.9 		67.174
v -7.241 		-2.9 		66.843
v 77.569 		1.3 		4.23
v 77.692 		1.3 		4.562
v 77.746 		1.3 		4.911
v -77.714 		1.1 		156.648
v -77.639 		1.1 		156.393
v -77.53 		1.1 		156.151
v -77.436 		1.1 		156
v -77.206 		1.1 		155.732
v -77.67 		1.3 		156.476
v -77.569 		1.3 		156.23
v -77.382 		1.3 		155.93
v -77.138 		1.3 		155.674
v 10.091 		1.1 		96.201
v 10.167 		1.1 		95.988
v 9.149 		1.1 		95.336
v 76.523 		1.3 		155.332
v 76.177 		1.3 		155.261
v 8.981 		1.1 		95.723
v 76.439 		1.1 		155.306
v 8.882 		1.1 		96.132
v 76.771 		1.1 		155.429
v 9.38 		1.1 		94.984
v 9.593 		1.1 		94.751
v 10.188 		1.1 		94.319
v 9.918 		1.1 		94.483
v 11.886 		-0.9 		97.607
v -6.441 		1.1 		65.575
v -6.409 		1.1 		65.799
v -7.631 		1.1 		65.763
v 11.748 		-0.9 		97.669
v -7.575 		1.1 		66.074
v 74.508 		2.9 		154.003
v 75.446 		2.9 		153.698
v 74.966 		2.9 		153.816
v -7.483 		1.1 		66.376
v 10.659 		-0.9 		97.568
v 10.369 		-0.9 		97.329
v 75.152 		1.3 		155.472
v 12.24 		-0.9 		97.329
v 75.477 		1.3 		155.332
v -75.735 		1.1 		3.27
v -5.841 		-0.9 		66.568
v -75.392 		1.1 		3.359
v -75.074 		1.1 		3.515
v -4.088 		-2.9 		64.919
v -74.794 		1.1 		3.732
v -3.954 		-2.9 		65.349
v -2.793 		-2.9 		65.029
v -2.748 		-2.9 		65.447
v -75.648 		1.3 		3.288
v -3.808 		-2.9 		63.483
v -3.483 		-2.9 		63.751
v -3.27 		-2.9 		63.984
v -3.093 		-2.9 		64.246
v -2.947 		-2.9 		64.526
v -2.872 		-2.9 		64.723
v -75.311 		1.3 		3.394
v -4.896 		-2.9 		64.286
v 74.929 		1.1 		155.616
v 75.074 		1.1 		155.515
v -4.313 		-2.9 		64.618
v -4.485 		-2.9 		64.471
v 75.392 		1.1 		155.359
v 75.735 		1.1 		155.27
v -4.167 		-2.9 		64.79
v -5.346 		-2.9 		64.259
v -5.567 		-2.9 		64.309
v -5.776 		-2.9 		64.393
v -75.002 		1.3 		3.566
v -5.965 		-2.9 		64.518
v -6.423 		-2.9 		65.275
v -6.177 		-2.9 		64.731
v -6.445 		-2.9 		65.5
v -7.64 		-2.9 		65.342
v -7.577 		-2.9 		64.926
v -7.481 		-2.9 		64.625
v -7.351 		-2.9 		64.336
v -7.182 		-2.9 		64.07
v -6.669 		-2.9 		63.543
v 81 		1.1 		147.456
v 72.661 		2.9 		156.753
v 72.734 		2.9 		156.264
v -6.404 		-2.9 		63.372
v -5.922 		-2.9 		63.16
v -5.615 		-2.9 		63.089
v -5.301 		-2.9 		63.052
v -4.985 		-2.9 		63.061
v -4.27 		-2.9 		63.232
v 72.878 		2.9 		155.791
v 81 		1.1 		0
v 81 		2.9 		0
v 0 		1.1 		0
v -7.798 		1.103 		0
v -34.998 		1.103 		0
v -34.998 		2.9 		0
v -7.798 		1.1 		0
v -70.003 		2.9 		0
v -70.003 		1.103 		0
v -70.803 		1.103 		0
v -70.803 		1.1 		0
v 73.221 		2.9 		158.866
v 72.798 		2.9 		157.975
v 81 		2.9 		139.264
v -76.439 		1.1 		3.306
v -76.771 		1.1 		3.429
v -76.089 		1.1 		3.252
v -76 		1.3 		3.252
v -76.689 		1.3 		3.394
v -76.352 		1.3 		3.288
v 77.436 		1.1 		158
v 76.926 		1.1 		158.485
v 77.206 		1.1 		158.268
v 77.569 		1.3 		157.77
v 12.134 		-0.9 		97.436
v 74.259 		1.1 		5.177
v 74.33 		1.1 		5.524
v 77.382 		1.3 		158.07
v 74.672 		1.1 		6.14
v 74.564 		1.1 		6
v 74.431 		1.1 		5.77
v 74.272 		1.3 		5.265
v 74.361 		1.3 		5.607
v 10.276 		-0.9 		97.21
v 76.848 		1.3 		158.528
v 74.618 		1.3 		6.07
v 77.138 		1.3 		158.326
v 74.47 		1.3 		5.849
v -77.328 		1.1 		3.86
v -77.071 		1.1 		3.616
v -77.483 		1.3 		4.076
v -77.267 		1.3 		3.796
v -76.998 		1.3 		3.566
v 76.608 		1.1 		158.641
v 74.254 		1.1 		4.911
v 74.286 		1.1 		4.648
v 74.33 		1.1 		4.476
v 74.47 		1.1 		4.151
v 76.523 		1.3 		158.668
v 74.25 		1.3 		5
v 74.272 		1.3 		4.735
v -79.348 		2.9 		157
v -79.202 		2.9 		156.025
v -79.311 		2.9 		156.507
v 74.361 		1.3 		4.393
v -78.779 		2.9 		158.866
v -79.202 		2.9 		157.975
v -78.474 		2.9 		159.255
v -79.311 		2.9 		157.493
v 78.556 		2.9 		2.838
v 78.209 		2.9 		2.485
v -75.392 		1.1 		155.359
v 79.075 		2.9 		3.676
v 77.815 		2.9 		2.187
v -75.074 		1.1 		155.515
v -74.929 		1.1 		155.616
v -75.311 		1.3 		155.394
v -75.203 		2.9 		153.746
v -74.965 		2.9 		153.814
v -75.002 		1.3 		155.565
v 77.071 		1.1 		3.616
v -74.185 		2.9 		154.187
v 77.328 		1.1 		3.86
v -74.62 		2.9 		153.95
v 77.138 		1.3 		3.674
v 77.382 		1.3 		3.93
v -73.791 		2.9 		154.485
v 76.848 		1.3 		3.472
v 11.886 		-0.9 		95.393
v 10.595 		-0.9 		95.471
v 76.771 		1.1 		3.429
v -76.309 		2.9 		153.667
v 75.911 		1.1 		3.252
v -75.815 		2.9 		153.657
v 76.523 		1.3 		3.332
v -76.797 		2.9 		153.748
v -77.709 		2.9 		154.122
v 75.911 		1.3 		3.252
v -76.177 		1.3 		155.261
v -75.911 		1.3 		155.252
v 76.439 		1.1 		3.306
v -76.523 		1.3 		155.332
v -75.911 		1.1 		155.252
v -4.614 		-0.9 		66.607
v 10.369 		-0.9 		95.671
v 73.526 		2.9 		159.255
v -4.752 		-0.9 		66.669
v 73.699 		2.9 		154.568
v 73.091 		2.9 		155.344
v 10.276 		-0.9 		95.79
v -6.151 		1.1 		144.898
v -6.151 		1.103 		144.898
v -19.626 		1.103 		161.998
v -19.626 		2.9 		161.998
v -47.003 		1.103 		161.998
v -47.003 		2.9 		161.998
v -6.224 		-0.9 		66.21
v -52.003 		1.1 		144.898
v -52.003 		1.103 		144.898
v -72.655 		2.9 		156.876
v -72.673 		2.9 		157.37
v -2.75 		1.1 		65.342
v -4.027 		1.1 		65.057
v -72.86 		2.9 		155.85
v 10.198 		-0.9 		95.919
v -72.709 		2.9 		156.385
v -3.954 		1.1 		65.349
v -72.925 		2.9 		158.324
v -73.444 		2.9 		159.162
v -2.793 		1.1 		65.029
v -2.872 		1.1 		64.723
v -72.764 		2.9 		157.856
v -73.444 		2.9 		154.838
v -73.154 		2.9 		155.238
v -2.993 		1.1 		64.431
v -77.709 		2.9 		159.878
v -77.267 		2.9 		160.099
v -3.147 		1.1 		64.155
v -3.27 		1.1 		63.984
v -75.753 		2.9 		160.335
v -76.917 		2.9 		160.222
v -76.309 		2.9 		160.333
v -3.559 		1.1 		63.677
v -3.721 		1.1 		63.543
v -74.185 		2.9 		159.813
v -75.084 		2.9 		160.22
v 10.578 		1.1 		94.16
v 12.032 		1.1 		94.16
v 11.828 		1.1 		94.107
v 11.41 		1.1 		94.052
v 10.989 		1.1 		94.07
v -73.791 		2.9 		159.515
v -4.078 		1.1 		63.319
v -75.735 		1.1 		158.73
v -75.392 		1.1 		158.641
v -74.564 		1.1 		158
v 65.536 		1.1 		65.536
v -74.794 		1.1 		158.268
v -75.074 		1.1 		158.485
v -74.431 		1.3 		157.77
v -74.618 		1.3 		158.07
v 76.186 		2.9 		8.343
v 76.676 		2.9 		8.279
v 75.324 		2.9 		8.281
v -74.862 		1.3 		158.326
v 75.568 		2.9 		8.322
v -75.477 		1.3 		158.668
v 79.318 		2.9 		5.369
v 79.327 		2.9 		4.63
v 79.236 		2.9 		4.144
v 79.164 		2.9 		6.093
v -75.152 		1.3 		158.528
v 78.708 		2.9 		6.968
v 78.389 		2.9 		7.345
v 78.017 		2.9 		7.672
v 77.151 		2.9 		8.143
v -76.265 		1.1 		155.27
v -76.608 		1.1 		155.359
v -75.823 		1.3 		158.739
v -76.089 		1.3 		158.748
v -76.089 		1.1 		158.748
v -76.926 		1.1 		155.515
v -76.848 		1.3 		155.472
v -77.436 		1.1 		158
v -77.267 		1.3 		158.204
v -77.483 		1.3 		157.924
v -79.024 		2.9 		155.563
v -78.779 		2.9 		155.134
v -78.115 		2.9 		154.405
v 12.777 		1.1 		98.455
v 12.327 		1.1 		98.727
v 11.305 		1.1 		98.95
v 11.724 		1.1 		98.914
v 11.93 		1.1 		98.869
v 9.748 		1.1 		98.392
v 10.095 		1.1 		98.631
v 10.885 		1.1 		98.914
v 10.283 		1.1 		98.727
v 10.679 		1.1 		98.869
v 78.209 		2.9 		154.485
v 13.593 		1.1 		97.376
v 13.018 		1.1 		98.251
v 13.293 		1.1 		97.932
v 78.556 		2.9 		154.838
v 13.459 		1.1 		97.663
v 76.916 		2.9 		153.78
v 77.815 		2.9 		154.187
v 76.432 		2.9 		153.68
v 13.659 		1.1 		97.176
v 12.546 		1.1 		96.349
v 12.546 		1.1 		96.651
v 12.496 		1.1 		96.871
v 13.747 		1.1 		96.658
v 13.75 		1.1 		96.342
v 13.628 		1.1 		95.723
v 12.473 		1.1 		96.057
v 13.707 		1.1 		96.029
v 13.353 		1.1 		95.155
v 13.092 		1.1 		94.824
v 12.86 		1.1 		94.61
v 12.326 		1.1 		94.276
v 12.605 		1.1 		94.424
v 74.564 		1.1 		158
v 75.392 		1.1 		158.641
v 75.074 		1.1 		158.485
v 74.794 		1.1 		158.268
v 74.517 		1.3 		157.924
v 74.733 		1.3 		158.204
v 77.071 		1.1 		6.384
v 75.311 		1.3 		158.606
v 77.267 		1.3 		6.204
v 75.002 		1.3 		158.434
v 76.998 		1.3 		6.434
v 76.089 		1.3 		6.748
v 77.746 		1.1 		157.088
v 77.741 		1.1 		156.823
v 76.689 		1.3 		6.606
v 77.608 		1.1 		157.69
v 76.352 		1.3 		6.712
v 77.746 		1.3 		156.911
v 77.692 		1.3 		157.438
v 77.741 		1.3 		157.177
v 12.518 		-0.9 		96.799
v 77.328 		1.1 		155.86
v 77.53 		1.1 		156.151
v 77.608 		1.1 		156.31
v 77.692 		1.1 		156.562
v 77.138 		1.3 		155.674
v 77.382 		1.3 		155.93
v 77.569 		1.3 		156.23
v 77.67 		1.3 		156.476
v 11.305 		1.1 		97.75
v 74.272 		1.3 		156.735
v 74.25 		1.3 		157
v 12.24 		1.1 		97.329
v 12.074 		1.1 		97.482
v 11.817 		1.1 		97.638
v 74.361 		1.3 		157.607
v 74.286 		1.3 		157.352
v 11.006 		1.1 		97.714
v 10.422 		1.1 		97.382
v 10.595 		1.1 		97.529
v 10.724 		1.1 		97.607
v 74.254 		1.1 		156.911
v 74.392 		1.1 		157.69
v 74.33 		1.1 		157.524
v 74.272 		1.1 		157.265
v 76.771 		1.1 		6.571
v 76.089 		1.1 		6.748
v 76.439 		1.1 		6.694
v 74.862 		1.3 		155.674
v 74.361 		1.3 		156.393
v 74.517 		1.3 		156.075
v 74.672 		1.3 		155.86
v 74.733 		1.1 		155.796
v 74.286 		1.1 		156.648
v 74.33 		1.1 		156.476
v 74.47 		1.1 		156.151
v 74.564 		1.1 		156
v 73.885 		2.9 		2.405
v 74.291 		2.9 		2.122
v 75.561 		1.1 		3.306
v 75.229 		1.1 		3.429
v 74.929 		1.1 		3.616
v 75.311 		1.3 		3.394
v 75.648 		1.3 		3.288
v 75.002 		1.3 		3.566
v 74.672 		1.1 		3.86
v 74.517 		1.3 		4.076
v 74.733 		1.3 		3.796
v 76.916 		2.9 		1.78
v 76.555 		2.9 		1.696
v 74.733 		2.9 		1.901
v 76.062 		2.9 		1.651
v 75.203 		2.9 		1.748
v 72.86 		2.9 		6.15
v 72.689 		2.9 		5.493
v 72.652 		2.9 		5
v 72.689 		2.9 		4.507
v 73.699 		2.9 		7.432
v 73.366 		2.9 		7.066
v 72.798 		2.9 		4.025
v 73.221 		2.9 		3.134
v 73.526 		2.9 		2.745
v -5.965 		1.1 		64.518
v -4.26 		1.1 		64.671
v -4.614 		1.1 		64.393
v -5.494 		1.1 		64.286
v -5.346 		1.1 		64.259
v -4.896 		1.1 		64.286
v -3.807 		1.1 		67.519
v -3.337 		1.1 		67.097
v -2.991 		1.1 		66.57
v -6.409 		1.1 		65.201
v -6.177 		1.1 		64.731
v -6.436 		1.1 		65.349
v -6.333 		1.1 		64.988
v -7.642 		1.1 		65.447
v -7.519 		1.1 		64.723
v -7.618 		1.1 		65.132
v -7.351 		1.1 		64.336
v -7.12 		1.1 		63.984
v -6.669 		1.1 		63.543
v -5.301 		1.1 		63.052
v -5.511 		1.1 		63.07
v -4.27 		1.1 		63.232
v -4.88 		1.1 		63.07
v -5.922 		1.1 		63.16
v -6.312 		1.1 		63.319
v -6.131 		-0.9 		64.671
v -4.614 		-0.9 		64.393
v -5.905 		-0.9 		64.471
v -76.689 		1.3 		158.606
v -76.998 		1.3 		158.434
v -6.302 		-0.9 		64.919
v -6.224 		-0.9 		64.79
v -76.926 		1.1 		158.485
v -76.608 		1.1 		158.641
v -77.206 		1.1 		158.268
v -74.254 		1.1 		157.088
v -74.259 		1.1 		156.823
v -74.392 		1.1 		157.69
v -74.254 		1.3 		156.911
v -74.259 		1.3 		157.177
v -74.308 		1.3 		157.438
v -7.798 		1.1 		45.405
v -7.798 		1.103 		45.405
v -74.794 		1.3 		155.732
v -34.998 		1.103 		0.003
v -34.998 		2.9 		0.003
v -70.803 		1.1 		45.405
v -74.618 		1.3 		155.93
v -70.803 		1.103 		45.405
v -75.753 		2.9 		8.335
v -74.431 		1.3 		156.23
v -76.309 		2.9 		8.333
v -76.797 		2.9 		8.252
v -75.084 		2.9 		8.22
v -72.752 		2.9 		5.796
v -72.673 		2.9 		4.63
v -73.444 		2.9 		7.162
v -72.655 		2.9 		5.124
v -72.925 		2.9 		6.324
v -74.33 		1.3 		156.476
v -74.733 		1.1 		155.796
v -70.003 		1.103 		0.003
v -70.003 		2.9 		0.003
v -73.571 		2.9 		2.702
v -73.125 		2.9 		3.293
v -72.82 		2.9 		3.967
v -74.564 		1.1 		156
v -74.308 		1.1 		156.562
v -74.392 		1.1 		156.31
v 77.071 		1.1 		155.616
v 76.848 		1.3 		155.472
v 76.089 		1.1 		155.252
v 75.823 		1.3 		155.261
# 724 vertices

g group_0_11909273

usemtl color_11909273
s 0

f 1 	2 	3
f 4 	5 	2
f 1 	9 	4
f 7 	4 	9
f 4 	7 	5
f 6 	5 	7
f 8 	698 	9
f 9 	1 	8
f 13 	15 	16
f 13 	16 	14
f 14 	16 	11
f 701 	5 	12
f 6 	698 	15
f 16 	698 	11
f 5 	6 	12
f 12 	6 	15
f 13 	12 	15
f 11 	698 	17
f 19 	10 	18
f 14 	18 	10
f 19 	18 	17
f 14 	11 	18
f 17 	18 	11
f 24 	23 	698
f 8 	25 	698
f 25 	24 	698
f 20 	23 	24
f 21 	20 	24
f 21 	24 	25
f 22 	21 	25
f 25 	8 	22
f 27 	368 	23
f 28 	368 	27
f 26 	368 	28
f 30 	20 	706
f 23 	20 	30
f 31 	29 	28
f 30 	706 	709
f 30 	31 	27
f 23 	30 	27
f 29 	26 	28
f 27 	31 	28
f 17 	698 	34
f 34 	698 	35
f 35 	698 	36
f 33 	36 	89
f 51 	37 	39
f 79 	19 	40
f 39 	37 	504
f 45 	46 	659
f 78 	44 	43
f 48 	50 	49
f 50 	52 	47
f 38 	80 	43
f 38 	86 	80
f 79 	40 	44
f 49 	50 	47
f 33 	32 	38
f 19 	17 	34
f 34 	40 	19
f 44 	33 	43
f 34 	35 	40
f 40 	35 	44
f 44 	35 	36
f 54 	55 	39
f 44 	36 	33
f 43 	33 	38
f 55 	51 	39
f 60 	91 	63
f 63 	91 	58
f 494 	292 	658
f 57 	465 	62
f 85 	87 	465
f 69 	68 	465
f 66 	86 	38
f 58 	56 	65
f 60 	38 	32
f 66 	38 	60
f 66 	60 	67
f 63 	67 	60
f 58 	67 	63
f 75 	451 	71
f 58 	65 	67
f 72 	73 	70
f 71 	70 	73
f 66 	67 	81
f 78 	79 	44
f 42 	47 	76
f 80 	78 	43
f 74 	42 	77
f 74 	296 	42
f 73 	77 	42
f 73 	42 	76
f 73 	76 	75
f 73 	75 	71
f 66 	81 	83
f 69 	87 	266
f 90 	89 	88
f 92 	91 	90
f 89 	90 	91
f 92 	90 	86
f 83 	92 	86
f 80 	86 	90
f 92 	83 	81
f 78 	80 	90
f 79 	90 	95
f 79 	78 	90
f 102 	96 	365
f 714 	365 	96
f 99 	92 	98
f 98 	92 	97
f 92 	99 	100
f 101 	102 	365
f 103 	97 	92
f 106 	103 	92
f 104 	105 	92
f 81 	104 	92
f 105 	106 	92
f 109 	111 	107
f 109 	107 	108
f 110 	111 	109
f 112 	113 	110
f 112 	110 	109
f 114 	115 	117
f 115 	88 	117
f 88 	89 	117
f 116 	117 	89
f 137 	401 	107
f 136 	137 	107
f 133 	134 	465
f 135 	465 	134
f 141 	465 	140
f 286 	288 	57
f 141 	145 	465
f 140 	206 	141
f 144 	198 	143
f 126 	130 	406
f 66 	83 	86
f 207 	206 	140
f 60 	32 	91
f 32 	33 	91
f 56 	58 	91
f 143 	608 	144
f 142 	608 	143
f 95 	10 	19
f 95 	19 	79
f 145 	133 	465
f 89 	91 	33
f 715 	96 	154
f 149 	148 	608
f 146 	149 	608
f 147 	146 	608
f 152 	368 	26
f 715 	154 	158
f 154 	152 	158
f 314 	152 	154
f 29 	158 	26
f 152 	26 	158
f 163 	190 	93
f 94 	93 	191
f 167 	193 	166
f 165 	166 	194
f 168 	192 	167
f 164 	165 	194
f 504 	478 	160
f 176 	177 	169
f 173 	160 	159
f 189 	175 	170
f 169 	170 	175
f 175 	176 	169
f 178 	179 	172
f 196 	172 	179
f 179 	180 	196
f 180 	161 	196
f 191 	196 	161
f 161 	94 	191
f 173 	159 	171
f 182 	188 	170
f 189 	170 	188
f 188 	182 	187
f 182 	181 	187
f 186 	187 	181
f 181 	215 	186
f 185 	162 	160
f 190 	163 	195
f 160 	173 	185
f 191 	93 	190
f 194 	195 	164
f 157 	511 	185
f 193 	167 	192
f 194 	166 	193
f 163 	164 	195
f 157 	185 	156
f 174 	169 	177
f 177 	178 	174
f 172 	174 	178
f 156 	185 	173
f 168 	202 	192
f 171 	647 	156
f 204 	205 	198
f 198 	199 	204
f 203 	204 	199
f 202 	203 	199
f 199 	192 	202
f 200 	201 	206
f 206 	207 	200
f 197 	200 	207
f 205 	206 	201
f 201 	198 	205
f 209 	231 	208
f 208 	183 	216
f 211 	212 	222
f 213 	221 	212
f 171 	156 	173
f 159 	386 	171
f 184 	186 	215
f 216 	184 	215
f 214 	221 	213
f 160 	478 	159
f 210 	211 	228
f 222 	228 	211
f 228 	229 	210
f 209 	210 	229
f 229 	230 	209
f 207 	224 	197
f 224 	225 	197
f 221 	222 	212
f 214 	197 	225
f 225 	226 	214
f 226 	227 	214
f 221 	214 	227
f 231 	209 	230
f 183 	208 	231
f 184 	216 	183
f 233 	232 	217
f 48 	315 	317
f 51 	55 	48
f 317 	51 	48
f 515 	232 	233
f 233 	217 	218
f 235 	89 	236
f 45 	247 	46
f 54 	46 	52
f 53 	251 	45
f 52 	50 	54
f 55 	54 	50
f 50 	48 	55
f 218 	219 	233
f 244 	233 	219
f 244 	219 	220
f 238 	237 	241
f 241 	237 	272
f 53 	243 	251
f 245 	240 	246
f 243 	239 	250
f 249 	239 	245
f 233 	244 	518
f 246 	240 	242
f 52 	46 	248
f 250 	251 	243
f 247 	45 	251
f 248 	46 	247
f 249 	250 	239
f 240 	245 	239
f 254 	246 	266
f 242 	266 	246
f 266 	267 	254
f 261 	257 	260
f 263 	260 	255
f 259 	258 	358
f 256 	254 	268
f 267 	268 	254
f 268 	262 	256
f 255 	256 	262
f 262 	263 	255
f 257 	255 	260
f 253 	235 	236
f 265 	259 	358
f 253 	237 	238
f 223 	515 	271
f 252 	234 	235
f 252 	235 	253
f 237 	253 	236
f 608 	155 	151
f 608 	151 	150
f 608 	150 	153
f 608 	153 	147
f 273 	698 	274
f 275 	274 	698
f 276 	275 	698
f 436 	149 	146
f 153 	210 	147
f 277 	241 	273
f 277 	273 	278
f 457 	452 	155
f 273 	241 	272
f 273 	274 	278
f 278 	274 	275
f 279 	278 	275
f 275 	276 	279
f 436 	148 	149
f 280 	279 	276
f 284 	285 	287
f 288 	286 	225
f 224 	288 	225
f 284 	287 	289
f 155 	608 	282
f 282 	608 	281
f 281 	608 	142
f 465 	57 	288
f 722 	284 	289
f 140 	465 	288
f 283 	290 	227
f 297 	299 	698
f 82 	84 	465
f 57 	59 	283
f 283 	286 	57
f 84 	85 	465
f 465 	87 	69
f 290 	283 	59
f 285 	284 	555
f 299 	263 	303
f 263 	82 	303
f 299 	260 	263
f 295 	42 	296
f 295 	663 	42
f 299 	303 	698
f 82 	465 	303
f 698 	303 	465
f 57 	239 	59
f 239 	61 	59
f 239 	243 	61
f 62 	240 	57
f 240 	239 	57
f 243 	64 	61
f 64 	243 	53
f 62 	68 	240
f 242 	68 	69
f 242 	240 	68
f 249 	70 	71
f 245 	246 	72
f 300 	306 	308
f 73 	72 	246
f 310 	73 	246
f 724 	285 	301
f 311 	309 	368
f 247 	75 	76
f 332 	724 	308
f 312 	311 	368
f 313 	333 	322
f 314 	312 	368
f 368 	152 	314
f 318 	309 	311
f 321 	322 	333
f 322 	323 	313
f 323 	324 	313
f 324 	316 	315
f 317 	315 	316
f 315 	313 	324
f 325 	318 	311
f 538 	537 	625
f 330 	320 	329
f 325 	311 	312
f 549 	550 	622
f 351 	352 	336
f 337 	325 	312
f 331 	306 	328
f 306 	331 	308
f 332 	308 	331
f 347 	351 	338
f 338 	351 	336
f 335 	336 	352
f 326 	334 	355
f 355 	356 	326
f 102 	318 	325
f 333 	329 	321
f 320 	321 	329
f 326 	356 	330
f 319 	330 	356
f 337 	312 	314
f 537 	549 	626
f 339 	344 	340
f 346 	347 	340
f 345 	346 	340
f 335 	353 	334
f 302 	308 	301
f 257 	261 	341
f 308 	302 	300
f 154 	337 	314
f 344 	339 	343
f 342 	343 	339
f 345 	340 	344
f 338 	340 	347
f 339 	341 	342
f 261 	342 	341
f 353 	335 	352
f 354 	334 	353
f 355 	334 	354
f 320 	330 	319
f 337 	96 	325
f 358 	360 	359
f 96 	337 	154
f 363 	359 	360
f 363 	361 	362
f 360 	364 	361
f 361 	363 	360
f 365 	366 	367
f 365 	367 	92
f 368 	91 	367
f 92 	367 	91
f 371 	108 	348
f 107 	348 	108
f 102 	325 	96
f 516 	270 	271
f 348 	358 	371
f 359 	371 	358
f 271 	515 	516
f 271 	264 	223
f 120 	371 	119
f 122 	108 	123
f 373 	91 	372
f 372 	91 	374
f 376 	373 	372
f 376 	372 	377
f 377 	372 	374
f 375 	374 	309
f 375 	377 	374
f 126 	139 	138
f 318 	375 	309
f 131 	124 	392
f 131 	392 	130
f 136 	139 	137
f 139 	136 	138
f 304 	607 	193
f 259 	269 	258
f 269 	259 	270
f 265 	264 	271
f 265 	271 	270
f 380 	378 	107
f 190 	298 	294
f 232 	223 	264
f 270 	259 	265
f 379 	380 	107
f 401 	379 	107
f 232 	264 	217
f 191 	294 	382
f 603 	307 	382
f 385 	381 	378
f 159 	482 	386
f 388 	693 	384
f 389 	390 	384
f 305 	192 	391
f 389 	384 	383
f 380 	385 	378
f 588 	381 	121
f 393 	171 	386
f 394 	385 	380
f 393 	386 	387
f 388 	393 	387
f 395 	393 	388
f 647 	171 	393
f 377 	99 	376
f 390 	395 	388
f 379 	394 	380
f 396 	91 	397
f 397 	91 	373
f 381 	123 	121
f 384 	390 	388
f 398 	65 	56
f 392 	394 	379
f 381 	122 	123
f 398 	56 	396
f 381 	385 	122
f 399 	396 	397
f 400 	399 	397
f 406 	130 	392
f 400 	397 	373
f 124 	122 	394
f 394 	392 	124
f 399 	398 	396
f 394 	122 	385
f 402 	383 	360
f 400 	373 	376
f 392 	379 	401
f 406 	392 	401
f 403 	402 	360
f 406 	401 	137
f 137 	139 	406
f 103 	106 	399
f 103 	399 	400
f 376 	97 	400
f 535 	534 	278
f 309 	374 	368
f 91 	368 	374
f 278 	279 	535
f 97 	376 	98
f 99 	377 	375
f 272 	89 	273
f 698 	273 	89
f 89 	272 	237
f 237 	236 	89
f 407 	644 	389
f 411 	409 	238
f 410 	241 	277
f 376 	99 	98
f 410 	411 	241
f 411 	238 	241
f 277 	534 	410
f 534 	277 	278
f 646 	407 	408
f 294 	191 	190
f 414 	252 	253
f 383 	402 	389
f 407 	389 	402
f 407 	402 	408
f 408 	402 	403
f 195 	194 	298
f 403 	404 	408
f 416 	414 	253
f 412 	408 	404
f 416 	253 	238
f 412 	404 	405
f 416 	238 	409
f 190 	195 	298
f 645 	644 	407
f 304 	193 	192
f 646 	645 	407
f 192 	305 	304
f 196 	191 	307
f 382 	307 	191
f 559 	196 	307
f 542 	132 	168
f 202 	168 	132
f 517 	420 	270
f 200 	197 	142
f 201 	200 	142
f 197 	457 	472
f 419 	698 	422
f 199 	198 	391
f 192 	199 	391
f 203 	202 	132
f 201 	142 	143
f 143 	198 	201
f 358 	258 	430
f 424 	427 	429
f 205 	145 	141
f 431 	426 	424
f 133 	145 	205
f 428 	358 	430
f 206 	205 	141
f 424 	429 	431
f 204 	133 	205
f 204 	134 	133
f 203 	135 	134
f 433 	417 	432
f 132 	135 	203
f 434 	429 	427
f 204 	203 	134
f 100 	99 	375
f 100 	375 	318
f 433 	430 	258
f 101 	100 	318
f 432 	417 	418
f 318 	102 	101
f 447 	419 	424
f 396 	56 	91
f 258 	269 	433
f 97 	103 	400
f 105 	104 	65
f 105 	65 	398
f 433 	269 	417
f 104 	81 	67
f 65 	104 	67
f 106 	105 	399
f 421 	432 	418
f 399 	105 	398
f 417 	269 	420
f 428 	432 	435
f 146 	147 	209
f 146 	209 	436
f 433 	432 	430
f 210 	153 	150
f 422 	424 	419
f 150 	151 	437
f 424 	422 	427
f 438 	428 	435
f 432 	428 	430
f 427 	422 	423
f 442 	438 	435
f 445 	440 	448
f 442 	445 	448
f 424 	426 	447
f 248 	247 	76
f 247 	451 	75
f 71 	451 	454
f 71 	454 	251
f 249 	245 	70
f 71 	251 	250
f 214 	452 	457
f 71 	250 	249
f 454 	451 	251
f 310 	246 	254
f 70 	245 	72
f 622 	626 	549
f 465 	542 	458
f 73 	310 	77
f 459 	458 	111
f 459 	111 	110
f 151 	155 	452
f 77 	310 	74
f 459 	110 	460
f 113 	460 	110
f 452 	437 	151
f 112 	461 	460
f 112 	460 	113
f 466 	458 	459
f 254 	74 	310
f 452 	213 	437
f 114 	117 	462
f 459 	460 	466
f 462 	466 	460
f 463 	115 	114
f 463 	114 	462
f 462 	460 	463
f 461 	463 	460
f 76 	47 	248
f 47 	52 	248
f 148 	436 	215
f 451 	247 	251
f 255 	74 	464
f 255 	464 	256
f 216 	215 	436
f 254 	464 	74
f 465 	458 	466
f 295 	255 	257
f 296 	74 	255
f 295 	296 	255
f 256 	464 	254
f 228 	222 	292
f 69 	266 	242
f 465 	117 	116
f 436 	209 	208
f 436 	208 	216
f 299 	261 	260
f 261 	299 	297
f 466 	462 	117
f 82 	263 	262
f 268 	82 	262
f 211 	437 	212
f 210 	150 	211
f 117 	465 	466
f 211 	150 	437
f 437 	213 	212
f 268 	84 	82
f 84 	267 	85
f 84 	268 	267
f 267 	87 	85
f 87 	267 	266
f 214 	213 	452
f 209 	147 	210
f 457 	197 	214
f 48 	41 	474
f 472 	155 	282
f 457 	155 	472
f 281 	472 	282
f 317 	477 	469
f 197 	281 	142
f 281 	197 	472
f 469 	504 	37
f 477 	504 	469
f 478 	504 	477
f 290 	291 	221
f 42 	656 	41
f 227 	290 	221
f 116 	688 	465
f 474 	654 	470
f 222 	293 	292
f 222 	221 	293
f 221 	291 	293
f 283 	227 	226
f 286 	283 	225
f 283 	226 	225
f 224 	207 	288
f 207 	140 	288
f 485 	386 	482
f 486 	386 	485
f 482 	159 	478
f 490 	386 	486
f 495 	231 	496
f 491 	386 	490
f 228 	494 	498
f 61 	64 	293
f 291 	290 	61
f 64 	658 	292
f 292 	293 	64
f 493 	492 	514
f 493 	514 	487
f 313 	470 	333
f 293 	291 	61
f 315 	470 	313
f 568 	495 	504
f 59 	61 	290
f 292 	494 	228
f 496 	231 	230
f 230 	497 	496
f 230 	229 	497
f 229 	498 	497
f 229 	228 	498
f 89 	501 	116
f 502 	116 	501
f 506 	116 	502
f 659 	660 	497
f 503 	689 	116
f 505 	503 	116
f 506 	505 	116
f 162 	504 	160
f 692 	507 	475
f 476 	507 	508
f 476 	508 	512
f 386 	693 	387
f 264 	358 	217
f 264 	265 	358
f 358 	348 	217
f 420 	269 	270
f 499 	476 	512
f 516 	517 	270
f 492 	499 	512
f 508 	505 	512
f 518 	515 	233
f 515 	223 	232
f 519 	492 	512
f 512 	506 	519
f 244 	520 	518
f 492 	519 	514
f 502 	501 	514
f 217 	348 	218
f 519 	502 	514
f 218 	348 	219
f 504 	219 	348
f 507 	476 	475
f 507 	689 	503
f 508 	507 	503
f 508 	503 	505
f 506 	512 	505
f 506 	502 	519
f 616 	617 	504
f 524 	698 	450
f 450 	698 	419
f 446 	449 	524
f 526 	487 	514
f 446 	524 	450
f 446 	450 	447
f 419 	447 	450
f 483 	484 	680
f 681 	483 	680
f 415 	483 	681
f 525 	524 	449
f 487 	526 	527
f 526 	514 	501
f 425 	441 	447
f 447 	426 	425
f 680 	484 	488
f 443 	444 	449
f 487 	527 	489
f 449 	446 	443
f 489 	527 	488
f 525 	698 	524
f 465 	422 	698
f 528 	501 	89
f 685 	528 	89
f 529 	276 	698
f 525 	529 	698
f 528 	526 	501
f 527 	526 	528
f 276 	529 	280
f 527 	528 	685
f 530 	280 	529
f 686 	89 	531
f 235 	234 	89
f 530 	444 	280
f 531 	89 	234
f 530 	529 	525
f 532 	533 	413
f 252 	414 	413
f 532 	413 	415
f 449 	530 	525
f 533 	252 	413
f 536 	535 	280
f 533 	532 	531
f 280 	535 	279
f 444 	536 	280
f 234 	252 	533
f 449 	444 	530
f 439 	446 	447
f 441 	439 	447
f 439 	443 	446
f 718 	712 	465
f 327 	622 	550
f 537 	94 	161
f 538 	93 	94
f 537 	538 	94
f 538 	163 	93
f 331 	328 	550
f 328 	327 	550
f 332 	331 	550
f 539 	458 	544
f 541 	458 	540
f 164 	540 	539
f 164 	539 	165
f 164 	541 	540
f 538 	541 	163
f 168 	543 	542
f 544 	165 	539
f 164 	163 	541
f 108 	121 	123
f 167 	543 	168
f 118 	119 	371
f 167 	545 	543
f 121 	108 	120
f 371 	120 	108
f 167 	166 	545
f 166 	546 	545
f 124 	108 	122
f 166 	544 	546
f 166 	165 	544
f 135 	132 	465
f 543 	458 	542
f 132 	542 	465
f 546 	458 	545
f 128 	109 	129
f 545 	458 	543
f 540 	458 	539
f 127 	129 	109
f 109 	108 	125
f 109 	125 	127
f 544 	458 	546
f 108 	124 	131
f 108 	131 	130
f 108 	130 	126
f 126 	125 	108
f 498 	494 	659
f 161 	549 	537
f 118 	371 	551
f 547 	551 	371
f 555 	371 	301
f 552 	548 	348
f 550 	552 	348
f 553 	371 	555
f 348 	332 	550
f 554 	371 	553
f 548 	556 	348
f 301 	371 	302
f 556 	548 	178
f 109 	455 	371
f 302 	371 	300
f 554 	547 	371
f 350 	109 	349
f 357 	109 	350
f 349 	109 	370
f 590 	559 	558
f 128 	453 	109
f 369 	109 	453
f 370 	109 	369
f 456 	109 	357
f 300 	371 	455
f 455 	109 	456
f 109 	461 	112
f 504 	348 	560
f 556 	560 	348
f 557 	558 	608
f 559 	608 	558
f 473 	463 	471
f 504 	560 	561
f 562 	504 	564
f 467 	463 	473
f 479 	463 	468
f 468 	463 	467
f 463 	479 	115
f 563 	170 	557
f 475 	115 	479
f 115 	475 	476
f 471 	463 	481
f 564 	504 	561
f 493 	487 	115
f 115 	487 	88
f 489 	88 	487
f 608 	563 	557
f 148 	563 	608
f 492 	493 	115
f 488 	88 	489
f 488 	484 	88
f 565 	562 	187
f 139 	126 	406
f 187 	566 	565
f 126 	138 	125
f 231 	495 	568
f 568 	569 	184
f 565 	566 	504
f 565 	504 	562
f 566 	567 	504
f 497 	498 	659
f 567 	569 	504
f 568 	504 	569
f 107 	571 	136
f 571 	107 	111
f 572 	571 	111
f 614 	613 	111
f 613 	612 	111
f 111 	612 	570
f 111 	570 	573
f 573 	572 	111
f 574 	575 	570
f 510 	523 	586
f 219 	504 	220
f 576 	220 	504
f 138 	136 	571
f 138 	571 	577
f 577 	571 	572
f 579 	577 	572
f 579 	572 	573
f 520 	244 	578
f 521 	520 	578
f 522 	521 	578
f 575 	579 	573
f 580 	522 	578
f 244 	220 	578
f 570 	575 	573
f 578 	220 	576
f 578 	576 	580
f 575 	574 	369
f 127 	125 	138
f 453 	128 	579
f 615 	580 	576
f 127 	138 	577
f 577 	129 	127
f 128 	129 	577
f 128 	577 	579
f 453 	579 	575
f 581 	616 	162
f 575 	369 	453
f 185 	581 	162
f 107 	582 	583
f 582 	107 	585
f 378 	585 	107
f 522 	580 	584
f 513 	509 	581
f 589 	588 	121
f 513 	581 	511
f 581 	185 	511
f 581 	509 	510
f 584 	586 	523
f 581 	510 	586
f 120 	587 	589
f 582 	589 	587
f 583 	582 	587
f 594 	583 	587
f 170 	169 	557
f 120 	589 	121
f 558 	557 	169
f 172 	196 	559
f 585 	589 	582
f 588 	589 	585
f 174 	172 	559
f 588 	585 	381
f 174 	559 	590
f 169 	174 	590
f 381 	585 	378
f 169 	590 	558
f 550 	549 	161
f 721 	348 	591
f 592 	591 	348
f 594 	348 	583
f 550 	161 	180
f 593 	348 	594
f 107 	583 	348
f 550 	180 	179
f 179 	552 	550
f 178 	552 	179
f 178 	548 	552
f 176 	560 	556
f 596 	595 	591
f 177 	176 	556
f 556 	178 	177
f 596 	591 	592
f 597 	596 	592
f 175 	560 	176
f 175 	561 	560
f 597 	592 	593
f 562 	188 	187
f 148 	215 	181
f 594 	597 	593
f 563 	182 	170
f 563 	181 	182
f 181 	563 	148
f 564 	561 	175
f 587 	598 	594
f 587 	120 	598
f 175 	189 	564
f 594 	598 	597
f 562 	564 	188
f 189 	188 	564
f 566 	187 	186
f 186 	567 	566
f 568 	183 	231
f 119 	118 	598
f 120 	119 	598
f 184 	567 	186
f 184 	569 	567
f 597 	598 	118
f 568 	184 	183
f 559 	307 	602
f 382 	294 	603
f 604 	603 	294
f 604 	294 	298
f 307 	603 	602
f 604 	298 	599
f 603 	599 	602
f 604 	599 	603
f 559 	602 	599
f 601 	606 	614
f 605 	369 	574
f 349 	601 	600
f 607 	559 	599
f 350 	349 	600
f 608 	198 	144
f 391 	198 	608
f 608 	305 	391
f 605 	370 	369
f 608 	609 	304
f 370 	601 	349
f 304 	305 	608
f 370 	606 	601
f 607 	304 	610
f 610 	304 	609
f 608 	559 	609
f 609 	559 	610
f 607 	610 	559
f 370 	605 	606
f 599 	298 	194
f 194 	193 	607
f 194 	607 	599
f 614 	111 	611
f 600 	601 	611
f 574 	570 	612
f 605 	574 	612
f 605 	612 	613
f 523 	522 	584
f 614 	605 	613
f 616 	504 	162
f 606 	605 	614
f 504 	615 	576
f 614 	611 	601
f 306 	618 	328
f 617 	615 	504
f 455 	621 	618
f 306 	300 	618
f 584 	580 	615
f 455 	618 	300
f 584 	615 	617
f 584 	617 	586
f 617 	616 	586
f 586 	616 	581
f 618 	622 	327
f 327 	328 	618
f 600 	611 	623
f 648 	647 	393
f 648 	393 	395
f 600 	619 	350
f 621 	620 	622
f 350 	619 	357
f 357 	619 	456
f 620 	456 	619
f 621 	456 	620
f 621 	455 	456
f 111 	458 	611
f 623 	611 	458
f 624 	623 	458
f 541 	538 	625
f 626 	625 	537
f 625 	624 	458
f 458 	541 	625
f 618 	621 	622
f 600 	623 	624
f 619 	600 	624
f 625 	619 	624
f 448 	438 	442
f 442 	639 	445
f 438 	448 	358
f 438 	358 	428
f 440 	358 	448
f 442 	638 	639
f 421 	638 	442
f 435 	432 	421
f 435 	421 	442
f 630 	360 	629
f 630 	629 	632
f 633 	632 	629
f 633 	629 	440
f 445 	633 	440
f 634 	631 	630
f 630 	632 	634
f 628 	634 	632
f 633 	642 	632
f 631 	635 	360
f 405 	404 	360
f 635 	405 	360
f 412 	405 	636
f 636 	405 	635
f 637 	636 	635
f 631 	637 	635
f 637 	650 	636
f 650 	412 	636
f 634 	637 	631
f 412 	650 	649
f 634 	627 	637
f 634 	628 	627
f 641 	642 	633
f 360 	358 	629
f 630 	631 	360
f 640 	628 	632
f 641 	633 	445
f 640 	632 	642
f 445 	639 	641
f 440 	629 	358
f 389 	643 	390
f 389 	644 	643
f 48 	474 	315
f 470 	315 	474
f 649 	646 	408
f 51 	317 	37
f 408 	412 	649
f 317 	316 	477
f 478 	477 	324
f 316 	324 	477
f 482 	322 	485
f 485 	321 	486
f 322 	321 	485
f 648 	390 	643
f 648 	395 	390
f 482 	478 	323
f 387 	693 	388
f 324 	323 	478
f 323 	322 	482
f 404 	403 	360
f 384 	693 	383
f 321 	320 	486
f 320 	490 	486
f 319 	491 	490
f 319 	500 	491
f 320 	319 	490
f 651 	650 	637
f 627 	651 	637
f 319 	356 	500
f 491 	500 	386
f 360 	383 	693
f 68 	62 	465
f 658 	659 	494
f 658 	45 	659
f 660 	659 	46
f 658 	53 	45
f 46 	54 	660
f 42 	652 	655
f 42 	655 	656
f 657 	41 	656
f 654 	41 	657
f 653 	470 	654
f 41 	654 	474
f 54 	39 	660
f 64 	53 	658
f 504 	495 	660
f 495 	496 	660
f 662 	677 	652
f 660 	39 	504
f 496 	497 	660
f 41 	48 	49
f 42 	41 	49
f 47 	42 	49
f 317 	469 	37
f 663 	661 	42
f 661 	664 	42
f 662 	42 	664
f 652 	42 	662
f 665 	297 	698
f 667 	698 	666
f 667 	665 	698
f 344 	668 	345
f 698 	669 	668
f 666 	698 	668
f 347 	669 	670
f 672 	675 	693
f 675 	676 	693
f 355 	671 	674
f 676 	675 	352
f 352 	351 	676
f 693 	386 	673
f 673 	674 	693
f 674 	671 	693
f 671 	672 	693
f 676 	670 	693
f 698 	693 	670
f 678 	653 	654
f 678 	326 	330
f 678 	329 	653
f 330 	329 	678
f 333 	653 	329
f 655 	335 	334
f 655 	334 	656
f 679 	335 	655
f 679 	336 	335
f 679 	652 	677
f 338 	336 	679
f 338 	679 	677
f 677 	340 	338
f 681 	532 	415
f 679 	655 	652
f 654 	657 	678
f 326 	678 	657
f 656 	334 	657
f 326 	657 	334
f 234 	533 	531
f 333 	470 	653
f 684 	686 	681
f 532 	681 	686
f 686 	531 	532
f 339 	682 	661
f 680 	684 	681
f 527 	680 	488
f 662 	683 	677
f 685 	680 	527
f 684 	89 	686
f 339 	661 	663
f 680 	685 	684
f 682 	339 	683
f 677 	683 	340
f 339 	340 	683
f 662 	682 	683
f 664 	661 	682
f 662 	664 	682
f 685 	89 	684
f 663 	295 	257
f 702 	471 	481
f 261 	665 	342
f 261 	297 	665
f 669 	346 	668
f 346 	345 	668
f 344 	666 	668
f 687 	116 	689
f 687 	688 	116
f 467 	690 	691
f 663 	257 	341
f 341 	339 	663
f 667 	666 	344
f 667 	344 	343
f 667 	343 	342
f 342 	665 	667
f 347 	346 	669
f 676 	351 	670
f 691 	468 	467
f 671 	354 	672
f 356 	673 	500
f 356 	674 	673
f 355 	674 	356
f 691 	692 	468
f 479 	468 	692
f 671 	355 	354
f 354 	353 	672
f 353 	675 	672
f 353 	352 	675
f 347 	670 	351
f 500 	673 	386
f 670 	669 	698
f 692 	475 	479
f 364 	360 	693
f 691 	690 	687
f 688 	687 	690
f 689 	691 	687
f 692 	691 	689
f 692 	689 	507
f 700 	694 	693
f 434 	427 	695
f 362 	361 	696
f 696 	361 	694
f 700 	696 	694
f 480 	434 	695
f 363 	362 	696
f 363 	696 	697
f 694 	361 	364
f 694 	364 	693
f 699 	480 	695
f 693 	698 	700
f 481 	480 	699
f 698 	368 	700
f 89 	36 	698
f 701 	12 	13
f 702 	481 	699
f 703 	701 	13
f 704 	703 	13
f 704 	13 	14
f 14 	10 	704
f 705 	2 	5
f 5 	701 	705
f 29 	31 	717
f 712 	427 	423
f 707 	717 	31
f 707 	31 	30
f 695 	427 	712
f 709 	707 	30
f 712 	718 	699
f 710 	706 	20
f 471 	702 	711
f 710 	20 	21
f 423 	422 	465
f 710 	21 	708
f 700 	713 	696
f 712 	423 	465
f 7 	9 	698
f 698 	23 	368
f 699 	695 	712
f 367 	366 	713
f 367 	713 	700
f 696 	713 	697
f 714 	697 	713
f 366 	365 	714
f 366 	714 	713
f 368 	367 	700
f 716 	715 	158
f 702 	719 	711
f 716 	158 	29
f 473 	471 	711
f 717 	716 	29
f 15 	698 	16
f 698 	6 	7
f 476 	499 	115
f 115 	499 	492
f 90 	88 	411
f 711 	467 	473
f 718 	465 	720
f 483 	415 	88
f 88 	484 	483
f 413 	88 	415
f 413 	414 	88
f 416 	88 	414
f 719 	465 	688
f 720 	465 	719
f 467 	711 	690
f 409 	88 	416
f 409 	411 	88
f 411 	410 	90
f 690 	711 	719
f 688 	690 	719
f 702 	699 	718
f 718 	720 	702
f 426 	90 	425
f 434 	480 	90
f 719 	702 	720
f 463 	90 	480
f 481 	463 	480
f 444 	443 	90
f 439 	90 	443
f 441 	90 	439
f 425 	90 	441
f 429 	434 	90
f 431 	429 	90
f 410 	534 	90
f 535 	90 	534
f 535 	536 	90
f 536 	444 	90
f 431 	90 	426
f 463 	461 	90
f 371 	511 	109
f 509 	371 	510
f 522 	523 	371
f 509 	513 	371
f 511 	371 	513
f 157 	109 	511
f 521 	371 	520
f 522 	371 	521
f 371 	359 	515
f 359 	517 	516
f 516 	515 	359
f 371 	515 	518
f 518 	520 	371
f 510 	371 	523
f 156 	109 	157
f 647 	109 	156
f 418 	417 	359
f 418 	359 	421
f 420 	359 	417
f 517 	359 	420
f 628 	363 	627
f 638 	421 	359
f 640 	642 	363
f 359 	363 	642
f 641 	359 	642
f 640 	363 	628
f 639 	638 	359
f 641 	639 	359
f 645 	697 	644
f 646 	697 	645
f 643 	697 	648
f 644 	697 	643
f 620 	619 	625
f 649 	363 	646
f 625 	626 	620
f 620 	626 	622
f 627 	363 	651
f 650 	363 	649
f 651 	363 	650
f 697 	646 	363
f 597 	118 	551
f 551 	596 	597
f 109 	697 	461
f 90 	461 	697
f 553 	284 	554
f 301 	285 	555
f 553 	555 	284
f 697 	109 	648
f 593 	592 	348
f 289 	348 	721
f 708 	21 	22
f 22 	1 	708
f 289 	721 	722
f 22 	8 	1
f 1 	4 	2
f 595 	722 	721
f 722 	554 	284
f 3 	708 	1
f 591 	595 	721
f 647 	648 	109
f 595 	554 	722
f 547 	554 	595
f 551 	547 	595
f 596 	551 	595
f 332 	348 	723
f 287 	723 	348
f 90 	704 	10
f 90 	10 	95
f 705 	701 	90
f 289 	287 	348
f 703 	704 	90
f 705 	90 	2
f 708 	3 	697
f 701 	703 	90
f 332 	723 	724
f 285 	724 	723
f 710 	697 	706
f 707 	709 	697
f 301 	308 	724
f 285 	723 	287
f 90 	697 	3
f 709 	706 	697
f 697 	710 	708
f 92 	100 	365
f 716 	717 	714
f 715 	716 	714
f 96 	715 	714
f 707 	697 	717
f 714 	717 	697
f 100 	101 	365
f 2 	90 	3
# 1460 faces

 #end of obj_0

